<?xml version="1.0" standalone="no"?>
<!DOCTYPE svg PUBLIC "-//W3C//DTD SVG 20010904//EN"
 "http://www.w3.org/TR/2001/REC-SVG-20010904/DTD/svg10.dtd">
<svg version="1.0" xmlns="http://www.w3.org/2000/svg"
 width="600.000000pt" height="150.000000pt" viewBox="0 0 600.000000 150.000000"
 preserveAspectRatio="xMidYMid meet">
<g transform="translate(0.000000,150.000000) scale(0.100000,-0.100000)"
fill="#000000" stroke="none">
<path d="M140 830 l0 -290 61 0 61 0 -4 216 c-2 118 0 207 4 197 3 -10 28
-107 55 -216 l48 -198 58 3 59 3 30 115 c16 63 40 160 53 215 l24 100 0 -217
1 -218 55 0 55 0 0 290 0 290 -88 0 -88 0 -50 -190 c-27 -104 -51 -184 -53
-177 -3 6 -26 91 -51 187 l-47 175 -91 3 -92 3 0 -291z m530 -2 l0 -258 -25 0
-25 0 -1 103 c-1 215 -6 289 -20 298 -28 18 -53 -39 -84 -186 -2 -11 -11 -47
-20 -80 -9 -33 -20 -77 -26 -97 -9 -36 -12 -38 -49 -38 -25 0 -40 5 -41 13 -2
36 -15 93 -25 108 -4 7 -9 25 -10 42 -2 16 -9 48 -16 71 -6 22 -12 46 -13 51
-4 38 -38 123 -48 121 -31 -4 -37 -19 -37 -90 0 -40 -3 -128 -7 -194 -5 -110
-8 -122 -25 -122 -17 0 -18 14 -18 255 l0 256 62 -3 c62 -3 62 -3 70 -38 5
-19 13 -43 19 -53 5 -10 8 -21 5 -26 -3 -4 2 -27 11 -52 8 -24 17 -57 20 -74
3 -16 10 -36 15 -42 6 -7 7 -13 4 -13 -4 0 1 -13 11 -30 37 -63 47 -45 102
170 20 80 39 150 43 155 3 6 34 10 67 10 l61 0 0 -257z"/>
<path d="M2100 830 l0 -290 58 0 57 0 1 139 c0 113 3 143 17 165 31 47 104 47
125 1 7 -16 12 -80 12 -165 l0 -140 55 0 55 0 0 168 c0 150 -2 170 -20 200
-39 64 -147 80 -211 33 -15 -12 -31 -21 -34 -21 -4 0 -5 45 -3 100 l3 100 -57
0 -58 0 0 -290z m80 176 c0 -78 19 -122 47 -111 12 4 13 2 5 -7 -20 -26 -52
-89 -41 -82 8 5 9 3 3 -7 -4 -8 -9 -59 -10 -114 -1 -55 -3 -103 -3 -107 -1 -5
-12 -8 -25 -8 -21 0 -25 6 -31 46 -6 42 2 435 10 461 2 6 13 9 24 6 19 -5 21
-13 21 -77z m213 -78 c12 -6 28 -18 35 -27 8 -10 11 -10 6 -2 -4 9 -3 12 4 7
6 -4 11 -66 12 -171 l1 -165 -26 0 -25 0 -1 108 c-2 131 -5 160 -20 178 -6 8
-8 14 -3 14 5 0 -6 9 -24 20 -18 11 -37 18 -43 15 -5 -4 -9 -1 -9 5 0 6 -11 4
-25 -6 -24 -15 -25 -15 -19 0 4 9 9 15 11 12 3 -3 11 0 17 7 17 16 82 20 109
5z"/>
<path d="M4455 830 l0 -292 160 4 c140 3 165 6 201 25 84 44 130 155 122 291
-5 87 -30 152 -74 195 -56 56 -76 61 -249 65 l-160 4 0 -292z m333 240 c39
-11 87 -61 102 -107 10 -29 21 -109 20 -143 -2 -56 -8 -98 -18 -116 -6 -12 -9
-24 -6 -26 7 -8 -82 -91 -103 -96 -10 -3 -80 -7 -155 -9 l-138 -5 0 256 0 256
133 0 c72 0 147 -4 165 -10z"/>
<path d="M4567 1032 c-15 -16 -17 -46 -17 -206 0 -144 3 -191 14 -201 15 -16
145 -23 167 -9 8 5 17 9 21 9 16 0 59 48 73 82 22 51 26 158 9 213 -27 89 -90
130 -200 130 -37 0 -56 -5 -67 -18z m180 -34 c44 -21 65 -76 65 -172 0 -92
-16 -141 -54 -165 -13 -8 -58 -17 -103 -19 l-80 -4 2 188 c2 104 3 191 3 193
0 9 142 -9 167 -21z"/>
<path d="M1579 1003 c-13 -16 -12 -17 4 -4 16 13 21 21 13 21 -2 0 -10 -8 -17
-17z"/>
<path d="M3639 993 c-13 -16 -12 -17 4 -4 16 13 21 21 13 21 -2 0 -10 -8 -17
-17z"/>
<path d="M930 958 c-89 -25 -140 -102 -140 -209 1 -110 51 -182 145 -208 64
-17 107 -13 166 17 77 39 113 99 113 190 1 161 -127 255 -284 210z m163 -40
c20 -6 35 -13 32 -16 -3 -3 8 -17 23 -32 30 -29 33 -40 32 -125 -1 -67 -7 -97
-24 -107 -6 -4 -11 -13 -11 -20 0 -7 -4 -13 -10 -14 -19 -2 -45 -16 -41 -23 5
-8 -24 -12 -99 -13 -61 -1 -131 31 -147 67 -6 14 -14 25 -18 25 -12 0 -11 159
1 182 7 13 12 28 10 33 -1 6 1 7 5 3 9 -10 35 12 28 23 -3 5 4 9 15 9 12 0 21
4 21 9 0 21 108 21 183 -1z"/>
<path d="M985 900 c-4 -6 -10 -8 -15 -5 -11 7 -82 -54 -75 -65 3 -5 1 -11 -4
-14 -5 -3 -9 -37 -9 -76 0 -38 3 -68 7 -66 4 3 13 -4 20 -16 10 -16 10 -19 -1
-13 -7 4 -2 -3 12 -15 42 -35 70 -43 117 -30 31 9 40 16 36 28 -4 8 -2 13 3
10 5 -3 18 6 28 20 12 15 14 22 5 17 -12 -7 -12 -6 0 9 19 23 21 128 3 134 -6
2 -10 7 -7 12 7 11 -64 72 -76 65 -5 -4 -9 -1 -9 4 0 14 -27 14 -35 1z m88
-63 c23 -36 29 -66 23 -112 -9 -60 -44 -95 -94 -95 -117 0 -134 211 -19 241
31 8 73 -8 90 -34z"/>
<path d="M1430 940 l-30 -32 0 26 c0 25 -3 26 -52 26 l-53 0 0 -210 0 -210 58
0 57 0 0 120 c0 129 12 180 48 199 15 8 29 8 48 1 15 -6 28 -9 29 -8 1 2 9 23
19 47 20 53 14 61 -48 68 -42 5 -48 3 -76 -27z m87 -3 c11 4 14 0 11 -18 -2
-20 -8 -24 -34 -21 -20 2 -39 -5 -58 -21 -27 -24 -65 -84 -44 -71 7 5 8 2 2
-7 -9 -15 -10 -31 -13 -151 -1 -76 -2 -78 -26 -78 l-25 0 0 180 0 180 25 0
c15 0 25 -6 25 -14 0 -23 20 -29 38 -13 27 23 77 46 80 37 2 -5 10 -6 19 -3z"/>
<path d="M1775 954 c-16 -8 -38 -23 -49 -32 -18 -16 -19 -16 -14 11 5 27 5 27
-51 27 l-56 0 3 -290 3 -290 54 0 55 0 0 100 c0 55 2 100 5 100 3 0 15 -9 27
-20 44 -41 135 -38 188 7 50 41 72 96 73 177 1 87 -14 133 -56 174 -55 53
-124 67 -182 36z m146 -43 c10 -13 19 -19 19 -15 1 5 9 -7 20 -27 28 -52 30
-185 4 -230 -44 -75 -138 -100 -199 -53 -48 36 -73 6 -73 -91 0 -89 1 -87 -29
-83 -16 2 -27 6 -25 11 1 4 2 120 2 257 l0 250 25 0 c14 0 25 -6 25 -13 0 -7
9 -18 20 -25 17 -10 21 -10 26 3 4 8 12 15 20 15 8 0 14 5 14 11 0 5 5 7 10 4
6 -3 10 -2 10 2 0 5 25 8 56 8 46 0 59 -4 75 -24z"/>
<path d="M1774 891 c-13 -13 -15 -13 -8 -1 4 8 -6 1 -22 -15 -43 -42 -51 -62
-49 -125 2 -70 21 -111 62 -131 18 -9 29 -20 25 -24 -4 -4 7 -4 23 0 17 4 35
8 41 9 14 2 69 46 58 46 -4 0 -3 5 4 12 7 7 12 42 12 86 0 59 -4 80 -21 103
-11 16 -27 29 -35 29 -8 0 -12 5 -9 10 7 11 4 12 -37 15 -15 1 -34 -5 -44 -14z
m88 -40 c31 -28 33 -33 33 -100 0 -63 -3 -73 -27 -97 -47 -48 -107 -33 -135
33 -27 66 -4 155 47 180 36 18 46 16 82 -16z"/>
<path d="M2681 959 c-82 -33 -121 -101 -121 -211 1 -119 43 -184 133 -209 54
-14 138 -3 178 24 32 21 76 83 67 92 -3 3 -27 9 -54 14 -47 9 -50 9 -72 -20
-26 -33 -64 -38 -99 -14 -22 15 -46 69 -36 79 4 3 67 6 141 6 l135 0 -7 52
c-8 58 -29 113 -54 142 -41 46 -150 70 -211 45z m168 -49 c39 -27 61 -68 64
-121 l2 -41 -116 0 c-98 1 -119 -2 -132 -16 -15 -17 -21 -92 -8 -92 5 0 21
-11 37 -25 39 -33 95 -34 121 -2 25 32 49 39 69 20 15 -15 14 -17 -3 -26 -10
-5 -29 -17 -43 -25 -26 -16 -130 -26 -130 -12 0 4 -11 5 -25 2 -15 -2 -25 0
-25 7 0 7 -5 9 -10 6 -6 -4 -9 -1 -8 7 2 7 -4 12 -12 10 -8 -2 -12 0 -8 4 4 4
-2 20 -13 35 -15 21 -21 47 -22 94 -1 36 2 65 7 65 4 0 6 6 3 13 -7 18 21 74
41 82 8 3 19 0 24 -7 6 -9 7 -6 3 8 -8 29 25 42 97 39 39 -2 66 -9 87 -25z"/>
<path d="M2735 910 c-3 -6 -11 -7 -17 -4 -7 4 -8 2 -4 -4 4 -7 1 -12 -9 -12
-21 0 -48 -27 -40 -39 3 -5 1 -12 -5 -16 -5 -3 -10 -15 -10 -26 0 -22 24 -52
34 -42 3 4 6 2 6 -3 0 -5 34 -8 76 -6 65 3 77 6 81 23 3 11 10 16 17 12 6 -4
4 1 -4 12 -8 10 -14 20 -12 22 6 8 0 20 -23 47 -14 16 -25 26 -25 21 0 -4 -7
-2 -15 5 -8 7 -15 9 -15 5 0 -4 -6 -2 -14 4 -10 8 -16 9 -21 1z m70 -55 c14
-13 25 -33 25 -45 0 -18 -6 -20 -79 -20 l-80 0 11 30 c21 61 81 78 123 35z"/>
<path d="M3668 949 c-21 -11 -38 -24 -38 -29 0 -6 -4 -10 -9 -10 -4 0 -6 11
-3 25 4 24 3 25 -52 25 l-56 0 0 -210 0 -210 60 0 60 0 0 145 c0 142 1 147 25
170 28 28 66 32 89 9 13 -13 16 -43 16 -170 l0 -154 60 0 60 0 0 135 c0 100 4
144 15 164 22 44 69 55 98 23 14 -16 17 -43 17 -170 l0 -152 61 0 61 0 -4 173
c-3 160 -5 174 -26 204 -42 60 -141 69 -206 19 -30 -23 -35 -24 -47 -10 -38
46 -119 56 -181 23z m127 -24 c18 -7 41 -22 51 -33 18 -20 20 -20 41 -2 12 9
20 20 18 24 -3 3 -2 4 1 1 4 -2 19 2 35 11 37 19 99 9 131 -20 22 -21 24 -31
26 -132 2 -60 0 -130 -4 -156 -5 -42 -9 -48 -30 -48 -24 0 -24 1 -25 108 -2
161 -2 172 -11 172 -4 0 -7 4 -5 9 5 18 -48 56 -73 53 -24 -4 -72 -35 -70 -46
0 -4 -7 -20 -15 -36 -8 -16 -15 -32 -15 -35 0 -3 0 -54 0 -115 l0 -110 -30 0
-30 0 -2 128 c0 70 -2 132 -2 138 -2 22 -29 63 -38 58 -4 -3 -8 -1 -8 4 0 13
-61 8 -85 -6 -11 -6 -16 -12 -11 -12 5 0 -3 -12 -18 -26 -14 -15 -26 -32 -25
-38 1 -6 1 -64 0 -128 l-1 -118 -30 0 -30 0 0 180 0 180 25 0 c14 0 25 -4 25
-10 0 -5 9 -14 21 -21 17 -9 27 -7 55 14 39 27 83 32 129 12z"/>
<path d="M5147 956 c-91 -33 -137 -103 -137 -207 0 -119 70 -200 184 -214 75
-10 132 9 182 59 110 110 74 301 -68 360 -45 19 -110 20 -161 2z m159 -34 c12
-6 25 -8 29 -4 5 4 5 2 1 -5 -3 -7 2 -14 14 -18 11 -4 18 -11 15 -16 -4 -5 -2
-9 4 -9 28 0 54 -149 33 -185 -4 -5 -7 -15 -7 -20 0 -15 -41 -65 -52 -65 -6 0
-18 -9 -27 -19 -10 -11 -23 -18 -30 -15 -7 3 -31 1 -54 -4 -24 -6 -39 -6 -36
-1 3 5 -8 9 -23 9 -16 0 -34 5 -40 11 -6 6 -22 16 -35 23 -33 16 -57 72 -60
136 -2 60 21 126 47 136 8 3 15 10 15 16 0 5 -5 6 -12 2 -7 -4 -8 -3 -4 5 4 6
10 9 14 7 4 -2 23 4 42 14 39 20 131 22 166 2z"/>
<path d="M5186 894 c-9 -8 -16 -12 -16 -7 0 11 -44 -38 -59 -64 -17 -33 -14
-129 5 -147 8 -9 12 -16 9 -16 -4 0 1 -8 12 -17 10 -10 12 -13 4 -8 -11 7 -13
7 -7 -3 13 -21 78 -43 109 -36 36 8 100 63 93 80 -3 8 -2 14 3 14 4 0 6 26 5
58 -5 77 -6 82 -16 82 -4 0 -8 6 -8 13 0 24 -67 67 -105 67 -7 0 -21 -7 -29
-16z m115 -68 c35 -57 18 -160 -30 -186 -40 -21 -87 -12 -115 21 -22 25 -26
41 -26 89 0 48 5 64 25 89 43 50 111 44 146 -13z"/>
<path d="M5628 961 c-47 -16 -86 -50 -108 -97 -19 -39 -22 -58 -18 -128 5
-106 29 -148 102 -182 85 -40 172 -29 233 29 28 26 62 93 51 101 -1 2 -27 8
-55 13 -49 9 -53 9 -59 -11 -11 -36 -36 -56 -69 -56 -44 0 -74 27 -85 75 -20
84 9 157 67 171 28 7 73 -20 81 -48 2 -10 10 -17 17 -14 7 2 33 8 59 11 25 4
46 10 46 13 0 21 -56 95 -82 108 -37 19 -141 28 -180 15z m132 -31 c48 -12 86
-50 76 -75 -7 -20 -52 -3 -77 29 -20 26 -64 32 -88 12 -12 -9 -13 -8 -6 3 5 9
-2 7 -18 -5 -41 -30 -57 -67 -57 -128 0 -82 24 -132 73 -156 22 -11 50 -17 62
-14 24 6 57 39 68 68 6 15 10 16 22 6 8 -6 19 -9 24 -6 20 13 22 -17 2 -38
-12 -12 -18 -26 -14 -30 5 -4 4 -7 -2 -6 -20 4 -36 0 -31 -9 3 -5 0 -8 -7 -8
-6 1 -34 -3 -60 -7 -57 -10 -108 4 -150 39 -37 33 -47 64 -47 149 0 62 4 78
28 114 15 24 37 45 50 49 12 3 22 8 22 12 0 11 84 12 130 1z"/>
<path d="M3032 788 c2 -147 6 -177 21 -200 22 -32 74 -58 118 -58 35 0 119 36
119 51 0 5 5 9 11 9 7 0 9 -10 7 -25 -5 -24 -3 -25 48 -25 l54 0 0 210 0 210
-55 0 -55 0 0 -127 c0 -102 -4 -135 -18 -163 -22 -45 -62 -60 -100 -39 -24 13
-28 23 -35 89 -4 41 -7 112 -5 158 l3 82 -58 0 -59 0 4 -172z m79 75 c0 -38 4
-103 8 -146 7 -66 12 -81 36 -103 57 -53 164 7 170 96 1 8 2 61 3 118 2 102 2
102 27 102 l25 0 0 -179 c0 -172 -1 -179 -21 -184 -15 -4 -23 1 -31 19 -7 16
-20 24 -35 24 -13 0 -21 -4 -18 -10 4 -6 -1 -7 -11 -3 -13 5 -15 3 -9 -7 5 -8
4 -11 -2 -7 -6 4 -16 1 -22 -7 -19 -23 -119 -12 -145 16 -19 21 -21 36 -24
180 l-3 158 25 0 c25 0 26 -2 27 -67z"/>
<path d="M4143 925 c0 -8 4 -12 9 -9 5 3 6 10 3 15 -9 13 -12 11 -12 -6z"/>
<path d="M809 553 c-13 -16 -12 -17 4 -4 9 7 17 15 17 17 0 8 -8 3 -21 -13z"/>
</g>
</svg>
